<svg width="100" height="100" viewBox="0 0 100 100" fill="none" xmlns="http://www.w3.org/2000/svg">
<g clip-path="url(#clip0_16_2)">
<mask id="mask0_16_2" style="mask-type:alpha" maskUnits="userSpaceOnUse" x="2" y="5" width="96" height="92">
<path d="M2.3125 97V5.4375H22.3125L50 71.5625L77.875 5.4375H97.625V97H82V51.75L82.5 25.8125L80.1875 32.6875L56.75 90.75H42.25L19.3125 32.375L17 25.5L17.5625 52V97H2.3125Z" fill="black"/>
</mask>
<g mask="url(#mask0_16_2)">
<rect x="2.5" y="-15.5" width="2" height="113" fill="#293241" stroke="#E0FBFC"/>
<rect x="5.5" y="5.5" width="2" height="93" fill="#293241" stroke="#E0FBFC"/>
<rect x="8.5" y="5.5" width="2" height="93" fill="#293241" stroke="#E0FBFC"/>
<rect x="12.5" y="5.5" width="2" height="93" fill="#293241" stroke="#E0FBFC"/>
<rect x="10.5" y="5.5" width="2" height="93" fill="#293241" stroke="#E0FBFC"/>
<rect x="14.5" y="5.5" width="2" height="93" fill="#293241" stroke="#E0FBFC"/>
<rect x="16.5" y="5.5" width="2" height="93" fill="#293241" stroke="#E0FBFC"/>
<rect x="19.5" y="5.5" width="2" height="93" fill="#293241" stroke="#E0FBFC"/>
<rect x="22.5" y="7.5" width="2" height="93" fill="#293241" stroke="#E0FBFC"/>
<rect x="25.5" y="8.5" width="2" height="93" fill="#293241" stroke="#E0FBFC"/>
<rect x="28.5" y="11.5" width="2" height="93" fill="#293241" stroke="#E0FBFC"/>
<rect x="31.5" y="15.5" width="2" height="93" fill="#293241" stroke="#E0FBFC"/>
<rect x="34.5" y="18.5" width="2" height="93" fill="#293241" stroke="#E0FBFC"/>
<rect x="37.5" y="22.5" width="2" height="93" fill="#293241" stroke="#E0FBFC"/>
<rect x="40.5" y="25.5" width="2" height="93" fill="#293241" stroke="#E0FBFC"/>
<rect x="43.5" y="26.5" width="2" height="93" fill="#293241" stroke="#E0FBFC"/>
<rect x="45.5" y="27.5" width="2" height="93" fill="#293241" stroke="#E0FBFC"/>
<rect x="47.5" y="27.5" width="2" height="93" fill="#293241" stroke="#E0FBFC"/>
<rect x="49.5" y="28.5" width="2" height="93" fill="#293241" stroke="#E0FBFC"/>
<rect x="51.5" y="28.5" width="2" height="93" fill="#293241" stroke="#E0FBFC"/>
<rect x="53.5" y="28.5" width="2" height="93" fill="#293241" stroke="#E0FBFC"/>
<rect x="55.5" y="28.5" width="2" height="93" fill="#293241" stroke="#E0FBFC"/>
<rect x="58.5" y="28.5" width="2" height="93" fill="#293241" stroke="#E0FBFC"/>
<rect x="61.5" y="28.5" width="2" height="93" fill="#293241" stroke="#E0FBFC"/>
<rect x="64.5" y="28.5" width="2" height="93" fill="#293241" stroke="#E0FBFC"/>
<rect x="67.5" y="27.5" width="2" height="93" fill="#293241" stroke="#E0FBFC"/>
<rect x="70.5" y="20.5" width="2" height="93" fill="#293241" stroke="#E0FBFC"/>
<rect x="73.5" y="12.5" width="2" height="93" fill="#293241" stroke="#E0FBFC"/>
<rect x="76.5" y="4.5" width="2" height="93" fill="#293241" stroke="#E0FBFC"/>
<rect x="79.5" y="3.5" width="2" height="93" fill="#293241" stroke="#E0FBFC"/>
<rect x="81.5" y="3.5" width="2" height="93" fill="#293241" stroke="#E0FBFC"/>
<rect x="83.5" y="3.5" width="2" height="93" fill="#293241" stroke="#E0FBFC"/>
<rect x="85.5" y="3.5" width="2" height="93" fill="#293241" stroke="#E0FBFC"/>
<rect x="88.5" y="3.5" width="2" height="93" fill="#293241" stroke="#E0FBFC"/>
<rect x="91.5" y="3.5" width="2" height="93" fill="#293241" stroke="#E0FBFC"/>
<rect x="94.5" y="3.5" width="2" height="93" fill="#293241" stroke="#E0FBFC"/>
</g>
</g>
<defs>
<clipPath id="clip0_16_2">
<rect width="100" height="100" fill="white"/>
</clipPath>
</defs>
</svg>
